<svg id="Capa_1" enable-background="new 0 0 497 497" height="512" viewBox="0 0 497 497" width="512" xmlns="http://www.w3.org/2000/svg"><g><path d="m437 110.001 30 167 30-80v-57z" fill="#a94525"/><path d="m323.5 110.001h143.5v167h-143.5z" fill="#ff3c19"/><path d="m479.221 93.612-57.221-28.611 45 75h30l-14.018-42.053c-.629-1.887-1.982-3.447-3.761-4.336z" fill="#302c4c"/><path d="m422 65.001h-98.5l-28.5 75h172l-15-45z" fill="#5b3364"/><path d="m383.5 95.001-60-30-57.221 28.611c-1.779.89-3.132 2.449-3.761 4.336l-14.018 42.053v137h150v-137z" fill="#ff5f21"/><path d="m301 140.001h45v107h-45z" fill="#fffacc"/><circle cx="323.5" cy="110.001" fill="#fff" r="7.5"/><path d="m124.25.001v90c24.853 0 45-20.147 45-45s-20.147-45-45-45z" fill="#ffa630"/><path d="m139.25 45.001c0-24.853-6.716-45-15-45-24.853 0-45 20.147-45 45s20.147 45 45 45c8.284 0 15-20.147 15-45z" fill="#ffc938"/><path d="m303.652 269.58c-65.851-31.799-147.536-71.246-296.071-72.547-4.171-.036-7.581 3.333-7.581 7.504v22.464l308.5 78.562v-33.643c-1.605-.774-3.219-1.554-4.848-2.34z" fill="#5b9b40"/><path d="m289.121 296.276c-32.225-15.562-68.749-33.199-114.784-46.589-52.487-15.265-109.513-22.686-174.337-22.686v30l308.5 81.619v-33.057c-6.369-3.005-12.796-6.108-19.379-9.287z" fill="#468943"/><path d="m276.075 323.291c-64.344-31.072-137.274-66.29-276.075-66.29v30l308.5 51.619c-10.807-4.892-21.479-10.044-32.425-15.329z" fill="#5b9b40"/><path d="m0 317 225.973 15.836c-54.803-24.63-118.877-45.835-225.973-45.835z" fill="#468943"/><path d="m497 197c-10.315 0-20.302.188-30 .537l-30 38.188 60-8.725z" fill="#5b9b40"/><path d="m193.348 269.58c-57.011 27.53-98.2 47.42-193.348 47.42v30l50 10 417-121.274v-38.188c-134.479 4.846-211.193 41.881-273.652 72.042z" fill="#70ae3e"/><path d="m497 377c-10.516 0-20.494.231-30 .67l-30 38.342 60-9.012z" fill="#5b9b40"/><path d="m7.5 377.67v119.329h189.913l269.587-80.987v-38.342z" fill="#70ae3e"/><path d="m497 407c-10.575 0-20.544.24-30 .696l-30 37.497 60-8.193z" fill="#70ae3e"/><path d="m289.121 457.725c-26.642 12.866-56.242 27.144-91.708 39.274h79.878l189.709-51.806v-37.497c-82.489 3.975-125.223 24.602-177.879 50.029z" fill="#9dcb3b"/><path d="m497 437c-10.644 0-20.609.251-30 .731l-30 35.278 60-6.009z" fill="#5b9b40"/><path d="m303.652 484.42c-8.488 4.099-17.238 8.324-26.361 12.579h69.943l119.766-23.99v-35.278c-74.557 3.817-112.715 22.239-163.348 46.689z" fill="#70ae3e"/><path d="m497 467c-10.725 0-20.674.266-30 .772l-20 14.614 20 14.614h22.5c4.142 0 7.5-3.358 7.5-7.5z" fill="#70ae3e"/><path d="m347.233 496.999h119.767v-29.227c-52.602 2.856-84.974 13.518-119.767 29.227z" fill="#9dcb3b"/><path d="m497 347-60-10 30 40.67c9.506-.439 19.484-.67 30-.67z" fill="#70ae3e"/><path d="m20 407-20 60v22.499c0 4.142 3.358 7.5 7.5 7.5 133.943-1.282 205.401-35.782 268.575-66.289 53.961-26.057 101.272-48.899 190.925-53.04v-40.67z" fill="#9dcb3b"/><path d="m497 227.001c-10.196 0-20.177.206-30 .574l-30 38.15 60-8.725z" fill="#70ae3e"/><path d="m322.663 249.688c-46.036 13.39-82.56 31.027-114.784 46.589-58.69 28.339-105.045 50.723-207.879 50.723v30l50 20 417-131.275v-38.15c-52.629 1.976-100.105 9.248-144.337 22.113z" fill="#9dcb3b"/><path d="m497 257.001c-10.362 0-20.349.2-30 .576l-30 38.776 60-9.353z" fill="#5b9b40"/><path d="m220.925 323.291c-59.683 28.819-111.226 53.709-220.925 53.709v30l80 10 387-120.646v-38.776c-119.634 4.662-186.535 36.96-246.075 65.713z" fill="#70ae3e"/><path d="m497 287.001c-10.396 0-20.384.201-30 .584l-30 38.734 60-9.319z" fill="#70ae3e"/><path d="m233.967 350.308c-60.377 29.154-117.405 56.692-233.967 56.692v30l78.5 10 388.5-120.681v-38.734c-112.425 4.482-173.659 34.051-233.033 62.723z" fill="#9dcb3b"/><path d="m497 317c-10.429 0-20.41.216-30 .621l-20 15.015 20 15.015c9.553-.425 19.533-.651 30-.651z" fill="#5b9b40"/><path d="m0 437v30c131.938 0 198.581-32.183 263.035-63.308 54.955-26.536 107.142-51.73 203.965-56.042v-30.029c-218.928 9.245-228.929 119.379-467 119.379z" fill="#70ae3e"/></g></svg>