<?xml version="1.0"?>
<svg xmlns="http://www.w3.org/2000/svg" width="512" height="512" viewBox="0 0 512 512"><g><path d="M496,272a8,8,0,0,0,8-8V240a8,8,0,0,0-8-8H456V216a8,8,0,0,0-8-8H422.43l32.35-51.76a8,8,0,0,0-1.12-9.9l-34.9-34.9a7.977,7.977,0,0,0-.51-10.75L384.31,66.75a7.979,7.979,0,0,0-11.31,0L356.59,83.16l-33.28,22.18a8,8,0,0,0-1.22,12.32l45.25,45.25a8,8,0,0,0,5.66,2.34c.26,0,.52-.01.79-.03a8.015,8.015,0,0,0,5.87-3.53l22.18-33.28,5.63-5.63,30.37,30.38L403.57,208H392v-8a8,8,0,0,0-16,0v8h-8a8,8,0,0,0-8,8v16H246.25l-4-16H288a16.021,16.021,0,0,0,16-16V88a16.021,16.021,0,0,0-16-16H128a16.021,16.021,0,0,0-16,16V200a16.021,16.021,0,0,0,16,16h45.75l-4,16H93.84A15.958,15.958,0,0,0,96,224V184a8,8,0,0,0-8-8H84.94l2.22-4.42a8.005,8.005,0,1,0-14.32-7.16L67.06,176H64V144a8,8,0,0,0-16,0v32H40a8,8,0,0,0-8,8v40a15.958,15.958,0,0,0,2.16,8H16a8,8,0,0,0-8,8v24a8,8,0,0,0,8,8H40V432H16a8,8,0,0,0,0,16H496a8,8,0,0,0,0-16H472V272ZM371.76,144.7,340.3,113.24l20.37-13.57,24.66,24.66ZM395.63,112,373,89.37l5.66-5.65,22.62,22.62ZM376,224h64v8H376ZM128,88H288l.01,88H128Zm0,112v-8H288.01v8H128Zm101.75,32h-43.5l4-16h35.5ZM48,192H80l.01,32H48ZM64,432H56V272h8Zm368.05,0H80V272H312v88a8,8,0,0,0,8,8h96a8,8,0,0,0,8-8V272h8.95ZM408,304v16H328V304Zm-80-16V272h80v16Zm80,48v16H328V336Zm48,96h-7.95l.9-160H456ZM24,256v-8H488v8Z"/><path d="M144,112h48a8,8,0,0,0,0-16H144a8,8,0,0,0,0,16Z"/><path d="M216,112h8a8,8,0,0,0,0-16h-8a8,8,0,0,0,0,16Z"/></g></svg>
