<svg id="Layer_5" enable-background="new 0 0 64 64" height="512" viewBox="0 0 64 64" width="512" xmlns="http://www.w3.org/2000/svg"><g><g><g><path d="m45 29h-8v-14h8z" fill="#f0bc5e"/></g></g><g><g><path d="m57 29h-8v-14h8z" fill="#f0bc5e"/></g></g><g><g><path d="m19 19h-8v-6h8z" fill="#f0bc5e"/></g></g><g><g><path d="m31 19h-8v-6h8z" fill="#f0bc5e"/></g></g><g><g><path d="m10 63c-2.757 0-5-2.243-5-5s2.243-5 5-5 5 2.243 5 5-2.243 5-5 5z" fill="#f0bc5e"/></g></g><g><g><path d="m33 49h-10v-8h10z" fill="#f0bc5e"/></g></g><path d="m63 13.074v-8.005l-58-4.143v8.005l2 .143v15.926h-4v6.184c-1.161.414-2 1.514-2 2.816v2c0 1.302.839 2.402 2 2.816v10.369c-1.161.413-2 1.513-2 2.815v4c0 1.654 1.346 3 3 3h1.101c-.066-.323-.101-.658-.101-1s.035-.677.101-1h-1.101c-.551 0-1-.448-1-1v-4c0-.552.449-1 1-1h3.554l.294-.47c2.466-3.946 6.582-6.609 11.152-7.317v1.846c-3.071.285-5.934 1.854-7.8 4.34l-1.199 1.599 8.999.009v5.993h-4.101c.066.323.101.658.101 1s-.035.677-.101 1h4.101v2h-18v2h60v-24.184c1.161-.414 2-1.514 2-2.816v-2c0-1.302-.839-2.402-2-2.816v-18.253zm-56-10 54 3.856v3.995l-54-3.856zm2 6.142 24 1.715v20.069h-4v-6h-20zm2 17.784v4h-2v-4zm2 0h2v4h-2zm4 0h2v4h-2zm4 0h2v4h-2zm4 0h2v4h-2zm-20 0h2v4h-2zm1.456 22h-1.456v-10h14v2.168c-5.08.695-9.685 3.563-12.544 7.832zm7.889.002c1.329-1.07 2.949-1.745 4.655-1.938v1.943zm6.655 11.998v-22h14v22zm34 0h-6v-16h6zm-8 0h-6v-16h6zm10 0v-18h-18v18h-2v-22h22v22zm4-25c0 .552-.449 1-1 1h-56c-.551 0-1-.448-1-1v-2c0-.552.449-1 1-1h25 31c.551 0 1 .448 1 1zm-2-5h-24v-19.926l24 1.715z"/></g></svg>