<svg height="512" viewBox="0 0 64 64" width="512" xmlns="http://www.w3.org/2000/svg"><g id="Filled_outline" data-name="Filled outline"><path d="m3 27h58v30h-58z" fill="#aabece"/><path d="m23 45h18v12h-18z" fill="#fcf05a"/><path d="m7 41h4v16h-4z" fill="#fcf05a"/><path d="m45 41h-26-4v16h4v-12h26v12h4v-16z" fill="#5a6470"/><path d="m53 41h4v16h-4z" fill="#fcf05a"/><circle cx="32" cy="34" fill="#dd3e46" r="3"/><path d="m7 31h4v6h-4z" fill="#fcf05a"/><path d="m15 33h4v4h-4z" fill="#fcf05a"/><path d="m53 31h4v6h-4z" fill="#fcf05a" transform="matrix(-1 0 0 -1 110 68)"/><path d="m45 33h4v4h-4z" fill="#fcf05a" transform="matrix(-1 0 0 -1 94 70)"/><path d="m6 17h52v4h-52z" fill="#aabece"/><g fill="#5a6470"><path d="m9 21h4v6h-4z"/><path d="m19 21h4v6h-4z"/><path d="m30 21h4v6h-4z"/><path d="m40 21h4v6h-4z"/><path d="m51 21h4v6h-4z"/></g><path d="m23 32h2v2h-2z" fill="#f4f4e6"/><path d="m23 36h2v2h-2z" fill="#f4f4e6"/><path d="m39 32h2v2h-2z" fill="#f4f4e6"/><path d="m39 36h2v2h-2z" fill="#f4f4e6"/><path d="m13 13-8-3 8-3z" fill="#dd3e46"/><path d="m27 13-8-3 8-3z" fill="#dd3e46"/><path d="m51 13 8-3-8-3z" fill="#dd3e46"/><path d="m37 13 8-3-8-3z" fill="#dd3e46"/><path d="m32 30a4 4 0 1 0 4 4 4 4 0 0 0 -4-4zm0 6a2 2 0 1 1 2-2 2 2 0 0 1 -2 2z"/><path d="m6 38h6v-8h-6zm2-6h2v4h-2z"/><path d="m14 38h6v-6h-6zm2-4h2v2h-2z"/><path d="m52 38h6v-8h-6zm2-6h2v4h-2z"/><path d="m44 38h6v-6h-6zm2-4h2v2h-2z"/><path d="m56 22h3v-6h-7v-2.307l7.352-2.756a1 1 0 0 0 0-1.874l-8-3a1 1 0 0 0 -1.352.937v9h-12v-2.307l7.352-2.756a1 1 0 0 0 0-1.874l-8-3a1 1 0 0 0 -1.352.937v9h-8v-9a1 1 0 0 0 -1.352-.937l-8 3a1 1 0 0 0 0 1.874l7.352 2.756v2.307h-12v-9a1 1 0 0 0 -1.352-.937l-8 3a1 1 0 0 0 0 1.874l7.352 2.756v2.307h-7v6h3v4h-6v32h60v-32h-6zm-4-13.557 4.152 1.557-4.152 1.557zm-14 0 4.152 1.557-4.152 1.557zm-16.152 1.557 4.152-1.557v3.114zm-14 0 4.152-1.557v3.114zm-.848 10v-2h50v2zm47 2v4h-2v-4zm-4 0v4h-5v-4zm-7 0v4h-2v-4zm-4 0v4h-4v-4zm-6 0v4h-2v-4zm-4 0v4h-5v-4zm-7 0v4h-2v-4zm-4 0v4h-4v-4zm-6 0v4h-2v-4zm-2 34h-2v-14h2zm12 0h-2v-10h2zm18 0h-16v-10h16zm4 0h-2v-10h2zm4 0h-2v-12h-28v12h-2v-14h32zm8 0h-2v-14h2zm4-28v28h-2v-16h-6v16h-2v-16h-36v16h-2v-16h-6v16h-2v-28z"/><path d="m23 32h2v2h-2z"/><path d="m23 36h2v2h-2z"/><path d="m39 32h2v2h-2z"/><path d="m39 36h2v2h-2z"/></g></svg>